<?xml version="1.0" encoding="iso-8859-1"?>
<!-- Uploaded to: SVG Repo, www.svgrepo.com, Generator: SVG Repo Mixer Tools -->
<svg height="800px" width="800px" version="1.1" id="Layer_1" xmlns="http://www.w3.org/2000/svg" xmlns:xlink="http://www.w3.org/1999/xlink" 
	 viewBox="0 0 503.5 503.5" xml:space="preserve">
<g transform="translate(1 1)">
	<path style="fill:#AE938D;" d="M404.671,421c25.6,0,38.1-18.9,38.1-18.9c13-6,13.2-14.1,20.8-20l0.9-0.9l-17.1-105.8
		c-1.7-17.1-17.1-34.1-42.7-34.1c-7.7,0-14.5,1.7-20.5,4.3l0,0l-0.9-1.7l-12.8-87.9c-1.7-17.1-17.1-34.1-42.7-34.1
		c-7.7,0-13.7,1.7-19.6,4.3c-4.3,1.7-7.7,4.3-10.2,6.8c-6.8,6.8-11.1,15.4-12.8,23.9l-2.3,3.5l1.4-3.5c1.7-8.5,6-17.1,12.8-23.9
		c3.4-2.6,6.8-5.1,10.2-6.8v-0.9l-13.5-88.8c-1.7-17.1-17.1-34.1-42.7-34.1c-12.8,0-23,4.3-29.9,11.1c-6.8,6.8-11.1,15.4-12.8,23.9
		l-13.5,94l-0.1-0.1c-6.8-6-17.1-9.4-29-9.4c-12.8,0-23,4.3-29.9,11.1c-6.8,6.8-11.1,15.4-12.8,23.9l-13.6,86.8
		c-3.4-0.8-8-1.6-11.1-3.2c-12.8,0-23,4.3-29.9,11.1c-6.8,6.8-11.1,15.4-12.8,23.9l-16.2,106.6v0.9c0,0,32.3,35.1,58.9,38.9
		c37.8,5.4,152.7-0.9,152.7-0.9H404.671z"/>
	<path style="fill:#AAB1BA;" d="M463.571,383c-7.7-2.6-15.4-4.3-24.7-4.3c0,0-8.5,34.1-34.1,34.1s-34.1-34.1-34.1-34.1
		c-9.4,0-17.9,1.7-24.7,4.3c-6.8,3.4-12.8,6.8-17.9,11.9c-4.3-5.1-10.2-9.4-17.9-11.9c-6.8-2.6-15.4-4.3-24.7-4.3
		c0,0-8.5,34.1-34.1,34.1s-34.1-34.1-34.1-34.1c-9.4,0-17.9,1.7-24.7,4.3c-6.8,3.4-12.8,7.7-17.9,11.9l0,0
		c-5.1-4.3-11.1-8.5-17.9-11.9c-6.8-2.6-15.4-4.3-24.7-4.3c0,0-8.5,34.1-34.1,34.1s-34.1-34.1-34.1-34.1c-9.4,0-17.9,1.7-24.7,4.3
		c-24.7,10.2-35,34.1-35,46.9v51.2h153.6v17.1h187.7l0,0v-17.1h153.6v-51.2C498.571,417.1,488.271,393.2,463.571,383z
		 M165.671,404.4c-0.2,0.4-0.4,0.7-0.6,1.1C165.271,405.2,165.471,404.8,165.671,404.4z M165.071,405.6c-0.4,0.6-0.8,1.1-1.1,1.7
		C164.271,406.7,164.671,406.2,165.071,405.6z M162.071,410.6c-0.2,0.3-0.4,0.6-0.6,0.9C161.671,411.1,161.871,410.9,162.071,410.6z
		 M158.071,422.3c0-1.7,0-2.6,0.9-4.3C158.971,419.7,158.071,421.4,158.071,422.3z M343.271,417.1c-0.9-0.9-0.9-2.6-1.7-3.4
		C342.371,414.6,343.271,416.3,343.271,417.1z M336.371,404.3c-1.7-1.7-2.6-3.4-4.3-5.1C333.871,400.9,335.571,402.6,336.371,404.3z
		 M344.071,423.1c0.9,0.9,0.9,2.6,0.9,3.4C344.971,425.7,344.071,424,344.071,423.1z"/>
	<path style="fill:#FFD0A1;" d="M199.871,173.9V208c0,0,0,34.1-34.1,34.1s-34.1-34.1-34.1-34.1v-34.1L199.871,173.9L199.871,173.9z
		 M131.571,293.4v34.1c0,0,0,34.1-34.1,34.1s-34.1-34.1-34.1-34.1v-34.1H131.571z M285.171,293.4v34.1c0,0,0,34.1-34.1,34.1
		s-34.1-34.1-34.1-34.1v-34.1H285.171z M361.971,173.9V208c0,0,0,34.1-34.1,34.1s-34.1-34-34.1-34V174h68.2V173.9z M285.171,54.5
		v34.1c0,0,0,34.1-34.1,34.1s-34.1-34.1-34.1-34.1V54.5H285.171z M438.771,293.4v34.1c0,0,0,34.1-34.1,34.1s-34.1-34.1-34.1-34.1
		v-34.1H438.771z"/>
</g>
<path style="fill:#51565F;" d="M499.571,503.5c-2.6,0-4.3-1.7-4.3-4.3v-68.3c0-7.7-4.3-21.3-14.5-30.7c-6.8-6.8-18.8-14.5-37.5-15.4
	c-2.6,8.5-11.9,30.7-33.3,33.3V448c0,2.6-1.7,4.3-4.3,4.3s-4.3-1.7-4.3-4.3v-29.9c-20.5-2.6-29.9-24.7-33.3-33.3
	c-4.3,0-8.5,0.9-12.8,1.7c-2.6,0.9-4.3-0.9-5.1-3.4s0.9-4.3,3.4-5.1c6-1.7,11.9-2.6,17.9-2.6c2.6,0,4.3,0.9,4.3,3.4
	c0,0,7.7,30.7,29.9,30.7c22.2,0,29.9-30.7,29.9-30.7c0.9-1.7,2.6-3.4,4.3-3.4c23,0,38.4,10.2,46.1,17.9
	c11.9,11.9,17.1,27.3,17.1,37.5v68.3C503.771,501.8,502.071,503.5,499.571,503.5z M345.971,503.5c-2.6,0-4.3-1.7-4.3-4.3v-68.3
	c0-7.7-4.3-21.3-14.5-30.7c-6.8-6.8-18.8-14.5-37.5-15.4c-2.6,8.5-11.9,30.7-33.3,33.3V448c0,2.6-1.7,4.3-4.3,4.3
	c-2.6,0-4.3-1.7-4.3-4.3v-29.9c-20.5-2.6-29.9-24.7-33.3-33.3c-18.8,0.9-30.7,8.5-37.5,15.4c-10.2,10.2-14.5,23-14.5,30.7v68.3
	c0,2.6-1.7,4.3-4.3,4.3s-4.3-1.7-4.3-4.3v-68.3c0-10.2,5.1-25.6,17.1-37.5c8.5-8.5,23-17.9,46.9-17.9c1.7,0,3.4,1.7,4.3,3.4
	c0,0,7.7,30.7,29.9,30.7s29.9-30.7,29.9-30.7c0.9-1.7,2.6-3.4,4.3-3.4c23,0,38.4,10.2,46.1,17.9c11.9,11.9,17.1,27.3,17.1,37.5v68.3
	C350.171,501.8,348.471,503.5,345.971,503.5z M4.571,503.5c-2.6,0-4.3-1.7-4.3-4.3v-68.3c0-10.2,5.1-25.6,17.1-37.5
	c8.5-8.5,23.9-17.9,46.9-17.9c1.7,0,3.4,1.7,4.3,3.4c0,0,7.7,30.7,29.9,30.7s29.9-30.7,29.9-30.7c0.9-1.7,2.6-3.4,4.3-3.4
	c6,0,11.9,0.9,17.9,1.7c2.6,0.9,3.4,2.6,3.4,5.1c-0.9,2.6-2.6,3.4-5.1,3.4c-4.3-0.9-8.5-1.7-12.8-1.7c-2.6,8.5-11.9,30.7-33.3,33.3
	v29.9c0,2.6-1.7,4.3-4.3,4.3c-2.6,0-4.3-1.7-4.3-4.3v-29.9c-20.5-2.6-29.9-24.7-33.3-33.3c-18.8,0.9-30.7,8.5-37.5,15.4
	c-10.2,10.2-14.5,23-14.5,30.7v68.3C8.871,501.8,7.171,503.5,4.571,503.5z M456.871,349.9c-1.7,0-4.3-1.7-4.3-3.4l-8.5-68.3
	c-1.7-14.5-14.5-30.7-38.4-30.7c-23,0-35.8,15.4-38.4,30.7l-8.5,68.3c0,2.6-2.6,4.3-5.1,3.4c-2.6,0-4.3-2.6-3.4-5.1l8.5-68.3
	c3.4-18.8,18.8-37.5,46.9-37.5c29,0,44.4,19.6,46.9,37.5l8.5,68.3C461.171,347.3,459.471,349.9,456.871,349.9L456.871,349.9z
	 M303.271,349.9c-1.7,0-4.3-1.7-4.3-3.4l-8.5-68.3c-1.7-14.5-14.5-30.7-38.4-30.7c-23,0-35.8,15.4-38.4,30.7l-8.5,68.3
	c0,2.6-2.6,4.3-5.1,3.4c-2.6,0-4.3-2.6-3.4-5.1l8.5-68.3c3.4-18.8,18.8-37.5,46.9-37.5c29,0,44.4,19.6,46.9,37.5l8.5,68.3
	C307.571,347.3,305.871,349.9,303.271,349.9L303.271,349.9z M149.671,349.9c-1.7,0-4.3-1.7-4.3-3.4l-8.5-68.3
	c-1.7-14.5-14.5-30.7-38.4-30.7c-23,0-35.8,15.4-38.4,30.7l-8.5,68.3c0,2.6-2.6,4.3-5.1,3.4c-2.6,0-4.3-2.6-3.4-5.1l8.5-68.3
	c3.4-18.8,18.8-37.5,46.9-37.5c29,0,44.4,19.6,46.9,37.5l8.5,68.3C153.971,347.3,152.271,349.9,149.671,349.9L149.671,349.9z
	 M380.071,221.9c-1.7,0-4.3-1.7-4.3-3.4l-8.5-59.7c-1.7-14.5-14.5-30.7-38.4-30.7c-23,0-35.8,15.4-38.4,30.7l-8.5,59.7
	c0,2.6-2.6,4.3-5.1,3.4c-2.6,0-4.3-2.6-3.4-5.1l8.5-59.7c3.4-18.8,18.8-37.5,46.9-37.5c29,0,44.4,19.6,46.9,37.5l8.5,59.7
	C384.371,219.3,382.671,221.9,380.071,221.9L380.071,221.9z M217.971,221.9c-1.7,0-4.3-1.7-4.3-3.4l-8.5-59.7
	c-1.7-14.5-14.5-30.7-38.4-30.7c-23,0-35.8,15.4-38.4,30.7l-8.5,59.7c0,2.6-2.6,4.3-5.1,3.4c-2.6,0-4.3-2.6-3.4-5.1l8.5-59.7
	c3.4-18.8,18.8-37.5,46.9-37.5c29,0,44.4,19.6,46.9,37.5l8.5,59.7C222.171,219.3,220.471,221.9,217.971,221.9L217.971,221.9z
	 M303.271,102.4c-1.7,0-4.3-1.7-4.3-3.4l-8.5-59.7c-1.7-14.6-14.5-30.8-38.4-30.8c-23,0-35.8,15.4-38.4,30.7l-8.5,59.7
	c0,2.6-2.6,4.3-5.1,3.4c-2.6,0-4.3-2.6-3.4-5.1l8.5-59.7c3.4-18.8,18.8-37.5,46.9-37.5c29,0,44.4,19.6,46.9,37.5l8.5,59.7
	C307.571,99.8,305.871,102.4,303.271,102.4L303.271,102.4z"/>
</svg>