<?xml version="1.0" encoding="iso-8859-1"?>
<!-- Uploaded to: SVG Repo, www.svgrepo.com, Generator: SVG Repo Mixer Tools -->
<svg height="800px" width="800px" version="1.1" id="Layer_1" xmlns="http://www.w3.org/2000/svg" xmlns:xlink="http://www.w3.org/1999/xlink" 
	 viewBox="0 0 512 512" xml:space="preserve">
<path style="fill:#EFDFBB;" d="M126.202,492.675c0,6.345-5.166,11.489-11.539,11.489H82.358c-6.372,0-11.538-5.144-11.538-11.489
	V368.593c0-6.346,5.166-11.49,11.538-11.49h32.305c6.373,0,11.539,5.144,11.539,11.49V492.675z"/>
<path style="opacity:0.1;enable-background:new    ;" d="M103.443,492.675V368.593c0-6.292,5.081-11.396,11.38-11.481
	c-0.054-0.001-0.107-0.008-0.159-0.008H82.358c-6.372,0-11.538,5.144-11.538,11.49v124.082c0,6.345,5.166,11.489,11.538,11.489
	h32.305c0.053,0,0.106-0.007,0.159-0.008C108.524,504.07,103.443,498.966,103.443,492.675z"/>
<path style="fill:#EFDFBB;" d="M441.18,492.675c0,6.345-5.166,11.489-11.539,11.489h-32.305c-6.372,0-11.538-5.144-11.538-11.489
	V368.593c0-6.346,5.166-11.49,11.538-11.49h32.305c6.373,0,11.539,5.144,11.539,11.49V492.675z"/>
<path style="fill:#C69C6D;" d="M441.18,421.442c0,9.517-7.749,17.233-17.307,17.233H88.128c-9.558,0-17.307-7.716-17.307-17.233
	V25.07c0-9.518,7.749-17.234,17.307-17.234h335.745c9.558,0,17.307,7.716,17.307,17.234v396.372H441.18z"/>
<path style="opacity:0.1;enable-background:new    ;" d="M103.445,421.442V25.07c0-9.518,7.749-17.234,17.307-17.234H88.128
	c-9.558,0-17.307,7.716-17.307,17.234v396.372c0,9.517,7.749,17.233,17.307,17.233h32.625
	C111.194,438.675,103.445,430.96,103.445,421.442z"/>
<path style="fill:#FFFFFF;" d="M159.129,392.72c-4.481,0-8.557-2.584-10.453-6.627c-4.322-9.213-12.847-16.105-22.806-18.435
	c-5.213-1.22-8.898-5.853-8.898-11.185V90.039c0-5.333,3.684-9.964,8.898-11.185c9.959-2.33,18.484-9.222,22.806-18.435
	c1.895-4.043,5.973-6.627,10.453-6.627h193.743c4.48,0,8.557,2.584,10.453,6.627c4.322,9.213,12.847,16.105,22.806,18.435
	c5.213,1.219,8.898,5.851,8.898,11.185v266.433c0,5.333-3.684,9.964-8.898,11.185c-9.959,2.33-18.484,9.222-22.806,18.435
	c-1.895,4.043-5.973,6.627-10.453,6.627H159.129V392.72z"/>
<path style="opacity:0.1;enable-background:new    ;" d="M181.125,386.093c-4.322-9.213-12.847-16.105-22.806-18.435
	c-5.213-1.22-8.898-5.853-8.898-11.185V90.039c0-5.333,3.684-9.964,8.898-11.185c9.959-2.33,18.485-9.222,22.806-18.435
	c1.895-4.043,5.973-6.627,10.453-6.627h-32.449c-4.481,0-8.557,2.584-10.453,6.627c-4.322,9.213-12.847,16.105-22.806,18.435
	c-5.213,1.219-8.898,5.851-8.898,11.185v266.433c0,5.333,3.684,9.964,8.898,11.185c9.959,2.33,18.484,9.222,22.806,18.435
	c1.895,4.043,5.973,6.627,10.453,6.627h32.449C187.097,392.72,183.02,390.136,181.125,386.093z"/>
<ellipse style="fill:#FFE060;" cx="256" cy="141.134" rx="60.197" ry="40.238"/>
<g>
	<path style="fill:#78B591;" d="M197.732,223.625h116.534c4.329,0,7.837-3.509,7.837-7.837c0-4.328-3.508-7.837-7.837-7.837H197.732
		c-4.329,0-7.837,3.509-7.837,7.837C189.896,220.116,193.404,223.625,197.732,223.625z"/>
	<path style="fill:#78B591;" d="M296.502,248.711c0-4.328-3.508-7.837-7.837-7.837h-65.33c-4.329,0-7.837,3.509-7.837,7.837
		c0,4.328,3.508,7.837,7.837,7.837h65.33C292.994,256.548,296.502,253.039,296.502,248.711z"/>
	<path style="fill:#78B591;" d="M322.129,330.885H189.872c-4.329,0-7.837,3.509-7.837,7.837c0,4.328,3.508,7.837,7.837,7.837
		h132.258c4.329,0,7.837-3.509,7.837-7.837C329.966,334.393,326.458,330.885,322.129,330.885z"/>
	<path style="fill:#78B591;" d="M195.918,307.872c4.329,0,7.837-3.509,7.837-7.837v-9.703c0-4.328-3.508-7.837-7.837-7.837
		c-4.329,0-7.837,3.509-7.837,7.837v9.703C188.082,304.363,191.589,307.872,195.918,307.872z"/>
	<path style="fill:#78B591;" d="M212.114,290.332v9.703c0,4.328,3.508,7.837,7.837,7.837c4.329,0,7.837-3.509,7.837-7.837v-9.703
		c0-4.328-3.508-7.837-7.837-7.837C215.622,282.495,212.114,286.004,212.114,290.332z"/>
	<path style="fill:#78B591;" d="M236.147,290.332v9.703c0,4.328,3.508,7.837,7.837,7.837c4.329,0,7.837-3.509,7.837-7.837v-9.703
		c0-4.328-3.508-7.837-7.837-7.837C239.655,282.495,236.147,286.004,236.147,290.332z"/>
	<path style="fill:#78B591;" d="M260.18,290.332v9.703c0,4.328,3.508,7.837,7.837,7.837c4.329,0,7.837-3.509,7.837-7.837v-9.703
		c0-4.328-3.508-7.837-7.837-7.837C263.687,282.495,260.18,286.004,260.18,290.332z"/>
	<path style="fill:#78B591;" d="M292.049,307.872c4.329,0,7.837-3.509,7.837-7.837v-9.703c0-4.328-3.508-7.837-7.837-7.837
		c-4.329,0-7.837,3.509-7.837,7.837v9.703C284.212,304.363,287.72,307.872,292.049,307.872z"/>
	<path style="fill:#78B591;" d="M316.082,282.495c-4.329,0-7.837,3.509-7.837,7.837v9.703c0,4.328,3.508,7.837,7.837,7.837
		c4.329,0,7.837-3.509,7.837-7.837v-9.703C323.918,286.004,320.411,282.495,316.082,282.495z"/>
</g>
<g>
	<path style="fill:#FFE060;" d="M330.941,55.902c0,7.149-5.796,12.944-12.945,12.944H194.004c-7.149,0-12.945-5.795-12.945-12.944
		l0,0c0-7.149,5.796-12.944,12.945-12.944h123.992C325.145,42.958,330.941,48.753,330.941,55.902L330.941,55.902z"/>
	<path style="fill:#FFE060;" d="M330.941,392.476c0,7.149-5.796,12.944-12.945,12.944H194.004c-7.149,0-12.945-5.795-12.945-12.944
		l0,0c0-7.149,5.796-12.944,12.945-12.944h123.992C325.145,379.532,330.941,385.327,330.941,392.476L330.941,392.476z"/>
</g>
<path d="M209.081,176.105c12.644,8.452,29.307,13.107,46.919,13.107c17.612,0,34.275-4.655,46.919-13.107
	c13.615-9.101,21.113-21.52,21.113-34.967c0-13.449-7.498-25.867-21.113-34.969C290.275,97.717,273.612,93.062,256,93.062
	s-34.276,4.655-46.92,13.107c-13.614,9.101-21.112,21.52-21.112,34.969C187.968,154.585,195.465,167.004,209.081,176.105z
	 M256,108.735c28.382,0,52.359,14.839,52.359,32.402S284.382,173.539,256,173.539s-52.359-14.839-52.359-32.401
	C203.641,123.573,227.618,108.735,256,108.735z"/>
<path d="M116.971,323.396c-4.329,0-7.837,3.509-7.837,7.837v25.241c0,9.017,6.147,16.755,14.949,18.815
	c7.643,1.788,14.184,7.072,17.497,14.132c3.172,6.765,10.06,11.135,17.548,11.135h15.73c3.159,7.456,10.551,12.701,19.146,12.701
	h123.992c8.595,0,15.988-5.244,19.147-12.701h15.729c7.488,0,14.376-4.371,17.548-11.135c3.312-7.061,9.853-12.344,17.498-14.132
	c8.801-2.061,14.948-9.797,14.948-18.815V90.039c0-9.019-6.147-16.755-14.949-18.814c-7.643-1.789-14.185-7.072-17.497-14.132
	c-3.172-6.765-10.06-11.137-17.548-11.137h-16.635c-3.533-6.45-10.383-10.836-18.241-10.836H194.004
	c-7.858,0-14.709,4.385-18.24,10.836h-16.636c-7.488,0-14.376,4.372-17.548,11.135c-3.312,7.06-9.853,12.343-17.497,14.132
	c-8.802,2.059-14.949,9.797-14.949,18.814v205.668c0,4.328,3.508,7.837,7.837,7.837s7.837-3.509,7.837-7.837V90.039
	c0-1.7,1.17-3.161,2.847-3.554c12.274-2.872,22.785-11.373,28.115-22.738c0.604-1.286,1.922-2.118,3.358-2.118h14.915
	c2.495,8.679,10.489,15.054,19.961,15.054h123.992c9.472,0,17.465-6.375,19.961-15.054h14.915c1.437,0,2.754,0.832,3.358,2.118
	c5.331,11.365,15.841,19.866,28.115,22.738c1.676,0.392,2.847,1.854,2.847,3.554v266.433c0,1.7-1.171,3.162-2.847,3.554
	c-12.273,2.871-22.785,11.372-28.115,22.738c-0.603,1.286-1.922,2.117-3.358,2.117H337.32c-3.041-7.709-10.547-13.188-19.324-13.188
	H194.004c-8.777,0-16.284,5.478-19.324,13.188h-15.551c-1.437,0-2.755-0.831-3.358-2.118c-5.331-11.366-15.842-19.867-28.114-22.738
	c-1.676-0.392-2.848-1.854-2.848-3.554v-25.238C124.808,326.905,121.3,323.396,116.971,323.396z M317.996,61.009H194.004
	c-2.816,0-5.109-2.291-5.109-5.107s2.291-5.107,5.109-5.107h123.992c2.816,0,5.109,2.291,5.109,5.107S320.812,61.009,317.996,61.009
	z M194.004,387.369h123.992c2.816,0,5.109,2.291,5.109,5.107s-2.291,5.107-5.109,5.107H194.004c-2.816,0-5.109-2.291-5.109-5.107
	C188.896,389.66,191.188,387.369,194.004,387.369z"/>
<path d="M441.18,94.563c4.329,0,7.837-3.509,7.837-7.837V25.07c0-13.824-11.28-25.07-25.144-25.07H88.128
	C74.263,0,62.983,11.246,62.983,25.07v467.604c0,10.656,8.691,19.325,19.374,19.325h32.305c10.684,0,19.376-8.669,19.376-19.325
	v-46.163H377.96v46.163c0,10.656,8.691,19.325,19.374,19.325h32.305c10.684,0,19.376-8.669,19.376-19.325V122.253
	c0-4.328-3.508-7.837-7.837-7.837c-4.329,0-7.837,3.509-7.837,7.837v299.189c0,5.181-4.247,9.397-9.47,9.397H88.128
	c-5.222,0-9.47-4.215-9.47-9.397V25.07c0-5.182,4.248-9.397,9.47-9.397h335.745c5.222,0,9.47,4.215,9.47,9.397v61.656
	C433.343,91.054,436.851,94.563,441.18,94.563z M393.635,446.512h12.017v15.794c0,4.328,3.508,7.837,7.837,7.837
	s7.837-3.509,7.837-7.837v-15.794h2.547c3.35,0,6.546-0.661,9.47-1.852v48.014c0,2.014-1.661,3.652-3.702,3.652h-32.305
	c-2.041,0-3.701-1.638-3.701-3.652V446.512z M88.128,446.512h2.547v15.794c0,4.328,3.508,7.837,7.837,7.837s7.837-3.509,7.837-7.837
	v-15.794h12.017v46.163c0,2.014-1.661,3.652-3.702,3.652H82.358c-2.041,0-3.701-1.638-3.701-3.652V444.66
	C81.583,445.851,84.778,446.512,88.128,446.512z"/>
</svg>